<?xml version="1.0" encoding="UTF-8"?>
<svg width="512" height="512" viewBox="0 0 512 512" fill="none" xmlns="http://www.w3.org/2000/svg">
  <rect width="512" height="512" rx="128" fill="#4F46E5"/>
  <path d="M156 176C156 167.163 163.163 160 172 160H340C348.837 160 356 167.163 356 176V336C356 344.837 348.837 352 340 352H172C163.163 352 156 344.837 156 336V176Z" fill="white"/>
  <path d="M172 144C154.327 144 140 158.327 140 176V336C140 353.673 154.327 368 172 368H340C357.673 368 372 353.673 372 336V176C372 158.327 357.673 144 340 144H172ZM156 176C156 167.163 163.163 160 172 160H340C348.837 160 356 167.163 356 176V336C356 344.837 348.837 352 340 352H172C163.163 352 156 344.837 156 336V176Z" fill="white" fill-opacity="0.4"/>
  <path d="M208 208H304M208 256H304M208 304H304" stroke="#4F46E5" stroke-width="24" stroke-linecap="round"/>
</svg>
